<?xml version="1.0" encoding="UTF-8"?>
<svg version="1.1" xmlns="http://www.w3.org/2000/svg" width="96" height="96">
<path d="M0 0 C1.53882085 -0.00269933 3.07764002 -0.0065854 4.61645508 -0.01159668 C7.83073272 -0.01747111 11.04456364 -0.00899593 14.25878906 0.00976562 C18.36100328 0.03255457 22.46217043 0.01942032 26.56434631 -0.00452423 C29.73872646 -0.01903838 32.91286189 -0.01435072 36.08724976 -0.00401306 C37.59899014 -0.00136124 39.11075337 -0.00456068 40.62246704 -0.01393127 C57.28400076 -0.09456694 57.28400076 -0.09456694 63.74815369 6.00352478 C68.90200299 12.48210877 67.89076495 20.97957178 67.81640625 28.81640625 C67.81723617 30.40246239 67.81970019 31.98851843 67.82371521 33.5745697 C67.82656341 36.88729964 67.81196735 40.1993498 67.78442383 43.51196289 C67.75031397 47.74433482 67.75637743 51.97549455 67.7750864 56.20792484 C67.78568623 59.47922254 67.77669218 62.7502412 67.76170158 66.02151299 C67.75654302 67.58151863 67.75697316 69.14155369 67.76324654 70.70155525 C67.76873652 72.88638488 67.74820841 75.06951487 67.72094727 77.25415039 C67.71474869 78.49354874 67.70855011 79.73294708 67.7021637 81.00990295 C66.90904155 86.43647244 64.68749636 90.14100948 60.625 93.90625 C56.50050313 96.65591458 53.22156201 96.67408123 48.36450195 96.72412109 C47.67465714 96.73229858 46.98481232 96.74047607 46.27406311 96.74890137 C43.9913112 96.77370907 41.70862142 96.790262 39.42578125 96.8046875 C38.64417318 96.81001118 37.86256512 96.81533485 37.05727196 96.82081985 C32.91782996 96.84753506 28.77841791 96.86691262 24.63891602 96.88134766 C21.22165051 96.89467001 17.80498453 96.92249245 14.38793945 96.96337891 C10.25414218 97.01283635 6.12088735 97.03748481 1.98680687 97.04457474 C0.4163947 97.05126571 -1.15400639 97.06643154 -2.72424889 97.09046555 C-17.43549868 97.30273603 -17.43549868 97.30273603 -23.24934387 93.29019165 C-27.76984022 88.2035025 -29.31213782 84.01431013 -29.34594727 77.25415039 C-29.35887062 76.218507 -29.35887062 76.218507 -29.37205505 75.16194153 C-29.39458675 72.90053825 -29.38800056 70.64038728 -29.37890625 68.37890625 C-29.38414777 66.79381446 -29.39042618 65.20872579 -29.39768982 63.62364197 C-29.4080705 60.30924757 -29.40356683 56.99528313 -29.38891602 53.6809082 C-29.37173586 49.44960818 -29.39522471 45.21966716 -29.43040562 40.98851871 C-29.45244815 37.71718988 -29.45092166 34.44618278 -29.4426403 31.17480278 C-29.44182444 29.61560005 -29.44861772 28.05637283 -29.46341133 26.49724007 C-29.5855262 11.29863675 -29.5855262 11.29863675 -25.37315369 6.00352478 C-18.14102262 -0.81905493 -9.39820247 -0.05825622 0 0 Z " fill="#09BCC2" transform="translate(28.8125,-0.53125)"/>
<path d="M0 0 C2.91529259 1.34840345 5.27559417 2.89086693 7.75 4.93359375 C8.4409375 5.50013672 9.131875 6.06667969 9.84375 6.65039062 C10.91109375 7.53500977 10.91109375 7.53500977 12 8.4375 C13.41613899 9.60350575 14.8327898 10.76889022 16.25 11.93359375 C16.87390625 12.44978271 17.4978125 12.96597168 18.140625 13.49780273 C19.97775392 15.04755596 19.97775392 15.04755596 22.0838623 16.28120422 C24 18 24 18 24.50793457 20.28778076 C24.51111694 21.18377991 24.51429932 22.07977905 24.51757812 23.00292969 C24.53018677 24.02118835 24.54279541 25.03944702 24.55578613 26.08856201 C24.54768921 27.1885553 24.53959229 28.28854858 24.53125 29.421875 C24.5350769 30.55522278 24.53890381 31.68857056 24.54284668 32.85626221 C24.54557095 35.2570484 24.53817394 37.65786402 24.52148438 40.05859375 C24.50016276 43.7220348 24.52122938 47.38349677 24.546875 51.046875 C24.54423026 53.38021265 24.53910228 55.71354907 24.53125 58.046875 C24.53934692 59.13877136 24.54744385 60.23066772 24.55578613 61.35565186 C24.47703124 67.79455594 23.83719674 71.76569719 20 77 C15.48882632 81.1810878 12.29534557 82.12840277 6.23828125 82.09765625 C4.56088867 82.09282227 4.56088867 82.09282227 2.84960938 82.08789062 C1.68236328 82.07951172 0.51511719 82.07113281 -0.6875 82.0625 C-1.86634766 82.05798828 -3.04519531 82.05347656 -4.25976562 82.04882812 C-7.17322789 82.03703273 -10.08658863 82.0205727 -13 82 C-13 81.34 -13 80.68 -13 80 C-13.57975586 79.72816895 -14.15951172 79.45633789 -14.75683594 79.17626953 C-16.99001947 78.00523359 -18.88306937 76.70154419 -20.890625 75.1796875 C-21.95410156 74.37724609 -21.95410156 74.37724609 -23.0390625 73.55859375 C-23.76867188 73.00300781 -24.49828125 72.44742188 -25.25 71.875 C-25.99507812 71.31167969 -26.74015625 70.74835938 -27.5078125 70.16796875 C-29.34074811 68.78151746 -31.17137013 67.39212232 -33 66 C-29.90554116 64.96851372 -28.03311356 64.9887258 -24.8125 65.125 C-16.38338226 65.15827283 -11.33374393 62.65942431 -4.859375 57.40234375 C1.32970414 49.40594948 1.72947895 40.47091279 1.75 30.6875 C1.79898438 29.43904297 1.84796875 28.19058594 1.8984375 26.90429688 C2.16100358 20.42789742 2.16100358 20.42789742 -0.83398438 15.03369141 C-2.85609199 13.76429684 -4.75388217 12.79823083 -7 12 C-6.06414062 11.54173828 -6.06414062 11.54173828 -5.109375 11.07421875 C-2.7737232 9.88476644 -1.49416361 9.16653724 0 7 C0.2503577 3.37464024 0.2503577 3.37464024 0 0 Z " fill="#04A6A7" transform="translate(72,14)"/>
<path d="M0 0 C2.15991211 1.16064453 2.15991211 1.16064453 4 3 C4.49829102 5.64794922 4.49829102 5.64794922 4.50390625 8.8046875 C4.52259766 9.94550781 4.54128906 11.08632813 4.56054688 12.26171875 C4.56119141 13.45410156 4.56183594 14.64648438 4.5625 15.875 C4.57145623 18.22664962 4.5931184 20.57829315 4.62890625 22.9296875 C4.62963135 23.97366699 4.63035645 25.01764648 4.63110352 26.09326172 C5.05072018 29.3996522 6.18729348 31.24363125 8 34 C8 34.66 8 35.32 8 36 C13.22768125 38.53463333 17.69467393 38.52196062 23.3125 37.25 C26.07659553 36.24449913 26.07659553 36.24449913 27.3125 34.0625 C27.539375 33.381875 27.76625 32.70125 28 32 C28.495 30.515 28.495 30.515 29 29 C29.22797562 26.26710707 29.41668187 23.54957796 29.5625 20.8125 C29.62727539 19.68811523 29.62727539 19.68811523 29.69335938 18.54101562 C29.79922685 16.69421625 29.9000976 14.84713166 30 13 C29.24074219 13.03480469 28.48148438 13.06960937 27.69921875 13.10546875 C26.70535156 13.13253906 25.71148437 13.15960938 24.6875 13.1875 C23.70136719 13.22230469 22.71523438 13.25710937 21.69921875 13.29296875 C19 13 19 13 17.16796875 11.70703125 C15.21452039 8.85199133 15.64254597 6.33623765 16 3 C17.57954575 0.84316307 18.46506568 0.09827216 21.11303711 -0.38818359 C21.9097583 -0.39156738 22.70647949 -0.39495117 23.52734375 -0.3984375 C24.40197266 -0.40230469 25.27660156 -0.40617187 26.17773438 -0.41015625 C27.08845703 -0.39855469 27.99917969 -0.38695313 28.9375 -0.375 C30.2977832 -0.39240234 30.2977832 -0.39240234 31.68554688 -0.41015625 C32.99942383 -0.40435547 32.99942383 -0.40435547 34.33984375 -0.3984375 C35.13769287 -0.39505371 35.93554199 -0.39166992 36.75756836 -0.38818359 C39.66678631 0.11542626 40.97381397 0.84318389 43 3 C43.51757812 5.75219727 43.51757812 5.75219727 43.53125 9.06640625 C43.53898437 10.87915039 43.53898437 10.87915039 43.546875 12.72851562 C43.53140625 13.99373047 43.5159375 15.25894531 43.5 16.5625 C43.51546875 17.80064453 43.5309375 19.03878906 43.546875 20.31445312 C43.50944391 29.15287012 42.52618847 36.55249537 36.921875 43.62109375 C29.52894539 49.80402948 23.59034897 52.73153515 13.8046875 52.40625 C6.03687935 51.28110787 0.5116765 47.16210388 -4.52734375 41.35546875 C-9.53062939 33.35286599 -9.4603091 25.91510082 -9.375 16.6875 C-9.38660156 15.41326172 -9.39820312 14.13902344 -9.41015625 12.82617188 C-9.40628906 11.60865234 -9.40242188 10.39113281 -9.3984375 9.13671875 C-9.39505371 8.03030029 -9.39166992 6.92388184 -9.38818359 5.78393555 C-9 3 -9 3 -7.65869141 1.13989258 C-5.05361876 -0.65037592 -3.07357154 -0.3763557 0 0 Z " fill="#F8FCFC" transform="translate(31,28)"/>
<path d="M0 0 C5.70985379 3.65119902 10.94464135 7.48244546 16 12 C15.505 12.515625 15.01 13.03125 14.5 13.5625 C12.47298556 16.85639847 12.64826148 19.20122401 13 23 C15.58926331 25.58926331 17.02705279 25.37398043 20.625 25.625 C21.62789062 25.69976562 22.63078125 25.77453125 23.6640625 25.8515625 C24.43492188 25.90054688 25.20578125 25.94953125 26 26 C26.76115897 43.61237275 26.76115897 43.61237275 22 49 C17.67368925 51.98034741 14.19900694 52.56716439 9 52 C4.98390468 50.41224138 2.91533233 48.07356254 0.82739258 44.31176758 C-1.28281293 38.41576996 -0.37811516 31.51418744 -0.22460938 25.33984375 C-0.01946706 19.27911103 -0.01946706 19.27911103 -2.60302734 14.08300781 C-4.70798163 12.49699058 -4.70798163 12.49699058 -8 11 C-7.401875 10.731875 -6.80375 10.46375 -6.1875 10.1875 C-3.90204582 8.94682487 -2.55935721 8.07914294 -1 6 C-0.2730774 2.89160979 -0.2730774 2.89160979 0 0 Z " fill="#05A5A7" transform="translate(35,15)"/>
<path d="M0 0 C1.875 1.125 1.875 1.125 3 3 C3.54624158 6.66762206 3.47898298 8.3258758 1.3125 11.375 C-1 13 -1 13 -3.5 13.5625 C-6 13 -6 13 -8.375 10.875 C-10 8 -10 8 -9.9375 4.8125 C-8.22154026 -0.33537922 -4.89798488 -0.51020676 0 0 Z " fill="#F0F9FA" transform="translate(70,12)"/>
<path d="M0 0 C2.7912125 1.98322993 3.82597224 3.12986121 4.5 6.5 C4 9 4 9 2.4375 11.375 C0 13 0 13 -3.625 12.9375 C-7 12 -7 12 -9 9 C-9.32502803 5.87973093 -9.51151479 3.85252465 -7.875 1.125 C-5.07553259 -0.55468045 -3.20195936 -0.45742277 0 0 Z " fill="#F0F9FA" transform="translate(31,12)"/>
</svg>